<?xml version="1.0" encoding="UTF-8"?>
<svg xmlns="http://www.w3.org/2000/svg" xmlns:xlink="http://www.w3.org/1999/xlink" width="576" height="301" viewBox="-.02 -.02 23.04 12.04" fill="#030">
	<defs>
		<path id="a" d="M0,0v1h1v-1z" stroke="#000" stroke-width=".04"/>
		<g id="b"><use xlink:href="#a" fill="#060"/></g>
		<g id="c"><use xlink:href="#a" fill="#090"/></g>
		<g id="d"><use xlink:href="#a" fill="#0c0"/></g>
		<g id="e"><use xlink:href="#a" fill="#0f0"/></g>
	</defs>
	<use xlink:href="#a" x="3" y="0"/>
	<use xlink:href="#b" x="7" y="0"/>
	<use xlink:href="#b" x="8" y="0"/>
	<use xlink:href="#c" x="12" y="0"/>
	<use xlink:href="#c" x="13" y="0"/>
	<use xlink:href="#c" x="13" y="1"/>
	<use xlink:href="#c" x="17" y="0"/>
	<use xlink:href="#c" x="18" y="0"/>
	<use xlink:href="#c" x="19" y="0"/>
	<use xlink:href="#d" x="0" y="2"/>
	<use xlink:href="#d" x="1" y="2"/>
	<use xlink:href="#d" x="0" y="3"/>
	<use xlink:href="#d" x="1" y="3"/>
	<use xlink:href="#d" x="5" y="2"/>
	<use xlink:href="#d" x="4" y="3"/>
	<use xlink:href="#d" x="5" y="3"/>
	<use xlink:href="#d" x="6" y="3"/>
	<use xlink:href="#d" x="9" y="3"/>
	<use xlink:href="#d" x="10" y="3"/>
	<use xlink:href="#d" x="11" y="3"/>
	<use xlink:href="#d" x="12" y="3"/>
	<use xlink:href="#d" x="17" y="2"/>
	<use xlink:href="#d" x="15" y="3"/>
	<use xlink:href="#d" x="16" y="3"/>
	<use xlink:href="#d" x="17" y="3"/>
	<use xlink:href="#d" x="21" y="2"/>
	<use xlink:href="#d" x="22" y="2"/>
	<use xlink:href="#d" x="20" y="3"/>
	<use xlink:href="#d" x="21" y="3"/>
	<use xlink:href="#e" x="0" y="6"/>
	<use xlink:href="#e" x="0" y="7"/>
	<use xlink:href="#e" x="1" y="7"/>
	<use xlink:href="#e" x="2" y="7"/>
	<use xlink:href="#e" x="3" y="7"/>
	<use xlink:href="#e" x="6" y="5"/>
	<use xlink:href="#e" x="6" y="6"/>
	<use xlink:href="#e" x="5" y="7"/>
	<use xlink:href="#e" x="6" y="7"/>
	<use xlink:href="#e" x="7" y="7"/>
	<use xlink:href="#e" x="9" y="5"/>
	<use xlink:href="#e" x="9" y="6"/>
	<use xlink:href="#e" x="9" y="7"/>
	<use xlink:href="#e" x="10" y="7"/>
	<use xlink:href="#e" x="11" y="7"/>
	<use xlink:href="#e" x="14" y="6"/>
	<use xlink:href="#e" x="15" y="6"/>
	<use xlink:href="#e" x="16" y="6"/>
	<use xlink:href="#e" x="13" y="7"/>
	<use xlink:href="#e" x="14" y="7"/>
	<use xlink:href="#e" x="20" y="5"/>
	<use xlink:href="#e" x="18" y="6"/>
	<use xlink:href="#e" x="19" y="6"/>
	<use xlink:href="#e" x="20" y="6"/>
	<use xlink:href="#e" x="18" y="7"/>
	<use xlink:href="#e" x="22" y="5"/>
	<use xlink:href="#e" x="22" y="6"/>
	<use xlink:href="#e" x="22" y="7"/>
	<use xlink:href="#e" x="22" y="8"/>
	<use xlink:href="#e" x="22" y="9"/>
	<use xlink:href="#e" x="0" y="9"/>
	<use xlink:href="#e" x="0" y="10"/>
	<use xlink:href="#e" x="1" y="10"/>
	<use xlink:href="#e" x="0" y="11"/>
	<use xlink:href="#e" x="1" y="11"/>
	<use xlink:href="#e" x="4" y="9"/>
	<use xlink:href="#e" x="5" y="9"/>
	<use xlink:href="#e" x="3" y="10"/>
	<use xlink:href="#e" x="4" y="10"/>
	<use xlink:href="#e" x="3" y="11"/>
	<use xlink:href="#e" x="7" y="9"/>
	<use xlink:href="#e" x="8" y="9"/>
	<use xlink:href="#e" x="7" y="10"/>
	<use xlink:href="#e" x="7" y="11"/>
	<use xlink:href="#e" x="8" y="11"/>
	<use xlink:href="#e" x="12" y="9"/>
	<use xlink:href="#e" x="13" y="9"/>
	<use xlink:href="#e" x="11" y="10"/>
	<use xlink:href="#e" x="12" y="10"/>
	<use xlink:href="#e" x="12" y="11"/>
	<use xlink:href="#e" x="16" y="9"/>
	<use xlink:href="#e" x="15" y="10"/>
	<use xlink:href="#e" x="16" y="10"/>
	<use xlink:href="#e" x="17" y="10"/>
	<use xlink:href="#e" x="16" y="11"/>
	<use xlink:href="#e" x="20" y="10"/>
	<use xlink:href="#e" x="19" y="11"/>
	<use xlink:href="#e" x="20" y="11"/>
	<use xlink:href="#e" x="21" y="11"/>
	<use xlink:href="#e" x="22" y="11"/>
</svg>